<svg xmlns="http://www.w3.org/2000/svg" style="display: none;">
  <defs>
    <symbol id="twitter" viewbox="0 0 30 30">
      <path d="M29.7003,3.19984 C28.6185,3.65008 27.4563,3.95444 26.2362,4.09136 C27.4812,3.39052 28.4376,2.28088 28.8885,0.95844 C27.723,1.60748 26.4324,2.07844 25.0581,2.33268 C23.958,1.232 22.3902,0.54432 20.6553,0.54432 C17.3241,0.54432 14.6232,3.07944 14.6232,6.20676 C14.6232,6.65056 14.6763,7.0826 14.7792,7.49728 C9.7662,7.26068 5.3217,5.00668 2.3466,1.5806 C1.8276,2.41724 1.53,3.38996 1.53,4.42764 C1.53,6.3924 2.595,8.12588 4.2135,9.14116 C3.2247,9.11204 2.2944,8.85724 1.4817,8.43304 C1.4811,8.45684 1.4811,8.48064 1.4811,8.50444 C1.4811,11.24816 3.5604,13.5366 6.3198,14.05712 C5.8134,14.18676 5.2809,14.25592 4.7307,14.25592 C4.3419,14.25592 3.9642,14.22036 3.5958,14.15428 C4.3635,16.4038 6.591,18.04124 9.2304,18.08688 C7.1661,19.6056 4.5651,20.51084 1.7391,20.51084 C1.2522,20.51084 0.7722,20.48396 0.3003,20.43188 C2.9697,22.03852 6.1404,22.97624 9.5463,22.97624 C20.6409,22.97624 26.7081,14.34748 26.7081,6.8642 C26.7081,6.61864 26.7021,6.37476 26.6904,6.13144 C27.8688,5.3326 28.8915,4.33496 29.7003,3.19984 L29.7003,3.19984 Z"></path>
    </symbol>
    
    <symbol id="dribble" viewbox="0 0 30 30">
      <path d="M22.2831,6.34536 C22.0854,6.608 20.4318,8.68308 16.5249,10.04948 C14.7246,6.9622 12.729,4.42624 12.4251,4.04656 C13.2513,3.86092 14.1132,3.76152 14.9997,3.76152 C17.7912,3.76152 20.3427,4.739 22.2831,6.34536 L22.2831,6.34536 L22.2831,6.34536 Z M15.768,14.105 C10.1016,15.8144 7.0866,20.47416 6.8376,20.87176 C5.0829,19.05372 4.0131,16.64936 4.0131,14.01568 C4.0131,13.91096 4.0155,13.80624 4.0188,13.70236 C4.4994,13.71132 9.8235,13.77572 15.3102,12.243 C15.6249,12.81756 15.9249,13.4008 16.2009,13.9832 C16.0554,14.02128 15.9111,14.06188 15.768,14.105 L15.768,14.105 Z M15,0.28 C6.8814,0.28 0.3,6.42264 0.3,14 C0.3,21.57736 6.8814,27.72 15,27.72 C23.1186,27.72 29.7,21.57736 29.7,14 C29.7,6.42264 23.1186,0.28 15,0.28 L15,0.28 Z M15,26.005 C7.9074,26.005 2.1375,20.61976 2.1375,14 C2.1375,7.38024 7.9074,1.995 15,1.995 C22.0926,1.995 27.8625,7.38024 27.8625,14 C27.8625,20.61976 22.0926,26.005 15,26.005 L15,26.005 Z M18.0984,13.05948 C17.8704,12.5594 17.625,12.06268 17.3697,11.57408 C21.432,10.02624 23.2728,7.82348 23.5047,7.53116 C25.0347,9.27612 25.9614,11.49848 25.9857,13.9188 C25.6236,13.84712 21.9912,13.15972 18.3354,13.58868 C18.2583,13.41312 18.1797,13.23672 18.0984,13.05948 L18.0984,13.05948 L18.0984,13.05948 Z M14.4027,10.66604 C9.2637,11.93976 4.7373,11.92156 4.2459,11.9154 C4.9584,8.73348 7.2558,6.08888 10.3296,4.73564 C10.6191,5.10636 12.5823,7.64568 14.4027,10.66604 L14.4027,10.66604 L14.4027,10.66604 Z M16.8753,15.70156 C16.8993,15.69372 16.9236,15.68644 16.9476,15.67888 C18.4899,19.41968 19.128,22.5554 19.2915,23.45476 C17.9724,23.9792 16.5216,24.26956 15,24.26956 C12.4602,24.26956 10.119,23.46064 8.2563,22.10488 C8.4537,21.72772 10.6785,17.71672 16.8753,15.70156 L16.8753,15.70156 L16.8753,15.70156 Z M19.0044,15.20484 C22.4475,14.69048 25.4721,15.53272 25.8477,15.64332 C25.3578,18.49652 23.6034,20.96052 21.1383,22.51592 C21.0258,21.89236 20.4411,18.89076 19.0044,15.20484 L19.0044,15.20484 L19.0044,15.20484 Z"></path>
    </symbol>
    
    <symbol id="linkedin" viewbox="0 0 30 30">
      <path d="M23.3,22.7H20v-6.1c0-0.8-0.7-1.5-1.7-1.5c-0.9,0-1.7,0.7-1.7,1.5v6.1h-3.3V11.9h3.3v1.9 c0.7-0.9,1.7-1.9,2.9-1.9c2.1,0,3.7,1.7,3.7,3.8L23.3,22.7z M10,10.4c-0.9,0-1.7-0.7-1.7-1.5S9.1,7.3,10,7.3 c0.9,0,1.7,0.7,1.7,1.5S11,10.4,10,10.4z M11.7,22.7H8.4V11.9h3.3V22.7z M23.8,2.8H6.2c-2.4,0-4.4,1.9-4.4,4.1v16.3 c0,2.3,2,4.1,4.4,4.1h17.6c2.4,0,4.4-1.9,4.4-4.1V6.9C28.2,4.6,26.2,2.8,23.8,2.8z"/>
    </symbol>
    
    <symbol id="mail" viewbox="0 0 30 30">
      <polygon points="28.8,5.8 28.5,5.8 28.5,5.8 1.5,5.8 1.5,5.8 1.2,5.8 15,16.2"/>
      <path d="M29.9,6.8L15.5,17.7c-0.1,0.1-0.3,0.2-0.5,0.2s-0.3-0.1-0.5-0.2L0.1,6.8
      C0.1,6.9,0,7.1,0,7.2v15.5c0,0.8,0.7,1.4,1.5,1.4h27c0.8,0,1.5-0.6,1.5-1.4V7.2C30,7.1,29.9,6.9,29.9,6.8z"/>
    </symbol>
    
    <symbol id="logo" viewBox="0 0 200 100">
      <path d="M178,44l4.1-0.5v-2.7c0-2.8,0.7-4.9,2.2-6.5c1.5-1.6,3.5-2.4,6.3-2.4c1.3,0,2.5,0.1,3.6,0.4 c1.1,0.3,2,0.5,2.4,0.8l0.8,0.4v5.7h-3.2l-0.7-3.7c-0.8-0.2-1.8-0.2-3.1-0.2c-2.5,0-3.7,1.5-3.7,4.6v3.7h6l-0.1,3.4h-5.9v16.9 l4.4,1.1v2.5h-12.9V65l3.9-1.1V47H178V44z M169.8,43.4v20.5l3.4,1.1v2.5h-11.9V65l3.9-1.1V47l-3.9-0.9v-2.5L169.8,43.4z M167.2,32.6c2,0,3,1.1,3,3.4c0,0.9-0.3,1.7-1,2.2c-0.7,0.5-1.4,0.8-2.1,0.8c-0.8,0-1.5-0.3-2-0.8c-0.5-0.6-0.8-1.3-0.8-2.4 s0.3-1.8,0.8-2.4C165.7,32.9,166.4,32.6,167.2,32.6z M147.6,43.4l0.4,3.3c2.3-2.5,4.5-3.8,6.9-3.8c1.2,0,2.4,0.2,3.6,0.5l0.5,0.1 l-0.2,6.6h-3l-0.7-3.4c-2.6,0-4.8,1.2-6.6,3.6v13.6l4.6,1.1v2.5h-13V65l3.9-1.1V47l-3.9-0.9v-2.5L147.6,43.4z M120.9,52.7h11 c0-1.9-0.4-3.4-1.2-4.5c-0.8-1.2-2.1-1.7-3.8-1.7c-1.7,0-3.1,0.6-4.2,1.8C121.6,49.4,121,50.9,120.9,52.7z M136.4,56l-15.7,0.1 c0,2.5,0.6,4.5,1.8,6c1.2,1.5,2.8,2.2,4.8,2.2c0.7,0,1.3-0.1,2-0.2c0.7-0.1,1.3-0.3,1.9-0.5c0.6-0.2,1.1-0.4,1.6-0.6 c0.5-0.2,0.9-0.4,1.2-0.7l0.9-0.6l1.6,2.4c-1,0.8-2,1.5-2.9,1.9c-0.9,0.5-1.9,0.9-3.1,1.3c-1.2,0.4-2.4,0.6-3.8,0.6 c-3.6,0-6.3-1.1-8.2-3.3c-1.9-2.2-2.8-5.2-2.8-8.9c0-1.9,0.3-3.6,0.8-5.2c0.5-1.6,1.3-2.9,2.3-4.1c1-1.1,2.2-2,3.5-2.7 c1.4-0.6,2.9-1,4.5-1c6.4,0,9.6,3.6,9.6,10.7L136.4,56z M94.7,60.2h3.2l0.5,3.9c0.3,0.1,0.8,0.2,1.4,0.3c0.7,0.1,1.3,0.1,1.9,0.1 c2,0,3.4-0.3,4.3-0.9c0.9-0.6,1.3-1.5,1.3-2.7c0-0.8-0.3-1.5-0.9-2c-0.6-0.5-1.4-0.9-2.4-1.2c-0.9-0.3-2-0.7-3.1-1 c-1.1-0.3-2.1-0.8-3.1-1.3c-0.9-0.5-1.7-1.2-2.4-2.1c-0.6-0.9-0.9-2-0.9-3.4c0-2.3,0.8-4,2.3-5.2c1.5-1.2,3.5-1.8,6.1-1.9 c1.1,0,2.2,0.1,3.3,0.3c1.1,0.1,2.2,0.4,3.4,0.8l1.1,0.4l-0.1,6.2h-3l-0.7-3.6c-0.2-0.1-0.7-0.2-1.4-0.3c-0.7-0.1-1.4-0.2-2.2-0.2 c-0.5,0-1.1,0-1.6,0.1c-0.5,0.1-0.9,0.2-1.3,0.5s-0.7,0.5-0.9,0.9c-0.2,0.4-0.3,0.9-0.3,1.5c0,0.9,0.3,1.6,0.9,2.1 c0.6,0.5,1.4,0.9,2.4,1.3c0.9,0.4,2,0.7,3.1,1c1.1,0.3,2.1,0.8,3.1,1.3c0.9,0.5,1.7,1.2,2.4,2c0.6,0.8,0.9,1.9,0.9,3.2 c0,1.3-0.3,2.4-0.8,3.4c-0.5,1-1.3,1.8-2.2,2.4c-0.9,0.7-2,1.1-3.2,1.5c-1.2,0.3-2.5,0.5-3.9,0.5c-0.5,0-1.1,0-1.6-0.1 c-0.6,0-1.1-0.1-1.7-0.2c-0.5-0.1-1.1-0.2-1.5-0.3c-0.5-0.1-0.9-0.2-1.2-0.3l-1-0.3L94.7,60.2z M57.2,43.4l0.4,3.2 c0.4-0.4,0.9-0.8,1.6-1.3c0.6-0.4,1.3-0.8,2-1.2c0.7-0.4,1.5-0.7,2.3-0.9c0.8-0.2,1.6-0.3,2.4-0.3c3.1,0,5.2,1.3,6.3,3.9 c0.5-0.5,1.2-1.1,1.9-1.5c0.7-0.5,1.5-0.9,2.3-1.3c0.8-0.4,1.5-0.6,2.3-0.8c0.7-0.2,1.4-0.3,2-0.3c4.7,0,7.1,2.7,7.1,8.2v12.8 l3.4,1.1v2.5h-11V65l3-1.1V51.6c0-1.7-0.3-2.9-0.9-3.7c-0.6-0.8-1.5-1.1-2.8-1.1c-0.6,0-1.3,0.1-1.8,0.3s-1.1,0.4-1.7,0.7 c-0.5,0.3-1,0.6-1.4,0.9c-0.4,0.3-0.7,0.6-1,0.9l-0.7,0.9v13.5l3,1.1v2.5H65.4V65l3-1.1V51.6c0-1.7-0.3-2.9-0.9-3.7 c-0.6-0.8-1.5-1.1-2.8-1.1c-0.6,0-1.3,0.1-1.8,0.3c-0.6,0.2-1.1,0.4-1.7,0.7c-0.5,0.3-1,0.6-1.4,0.9c-0.4,0.3-0.7,0.6-1,0.9 l-0.7,0.9v13.5l3,1.1v2.5H49.6V65l3.9-1.1V47l-3.9-0.9v-2.5L57.2,43.4z M38.2,57.1H35c-2.3,0-3.9,0.3-4.9,0.9 c-1,0.6-1.4,1.5-1.4,2.8c0,1.2,0.3,2.1,0.8,2.7c0.6,0.6,1.4,0.9,2.4,0.9c0.5,0,1-0.1,1.6-0.3c0.5-0.2,1-0.4,1.6-0.7s1-0.6,1.3-0.9 c0.4-0.3,0.7-0.6,1-0.9l0.8-0.9V57.1z M25.5,44.7c3.3-1.2,6.3-1.8,9-1.8c2.7,0,4.7,0.5,6.2,1.6c1.4,1.1,2.1,2.9,2.1,5.5v13.9 l3.7,0.9v2.5l-7.1,0.2l-1-3.2C36,66.8,33.6,68,31.2,68c-2.4,0-4.2-0.6-5.3-1.8c-1.2-1.2-1.8-2.9-1.8-5.1c0-4.7,3.5-7.1,10.5-7.1 h3.7v-3.7c0-2.7-1.4-4.1-4.3-4.1c-1.6,0-3,0.2-4.1,0.5L29.3,47l-0.6,3.4h-3L25.5,44.7z M2.6,60.2h3.2l0.5,3.9 c0.3,0.1,0.8,0.2,1.4,0.3c0.7,0.1,1.3,0.1,1.9,0.1c2,0,3.4-0.3,4.3-0.9c0.9-0.6,1.3-1.5,1.3-2.7c0-0.8-0.3-1.5-0.9-2 s-1.4-0.9-2.4-1.2c-0.9-0.3-2-0.7-3.1-1c-1.1-0.3-2.1-0.8-3.1-1.3c-0.9-0.5-1.7-1.2-2.4-2.1c-0.6-0.9-0.9-2-0.9-3.4 c0-2.3,0.8-4,2.3-5.2c1.5-1.2,3.5-1.8,6.1-1.9c1.1,0,2.2,0.1,3.3,0.3c1.1,0.1,2.2,0.4,3.4,0.8l1.1,0.4l-0.1,6.2h-3L15,46.9 c-0.2-0.1-0.7-0.2-1.4-0.3c-0.7-0.1-1.4-0.2-2.2-0.2c-0.5,0-1.1,0-1.6,0.1c-0.5,0.1-0.9,0.2-1.3,0.5c-0.4,0.2-0.7,0.5-0.9,0.9 c-0.2,0.4-0.3,0.9-0.3,1.5c0,0.9,0.3,1.6,0.9,2.1c0.6,0.5,1.4,0.9,2.4,1.3c0.9,0.4,2,0.7,3.1,1c1.1,0.3,2.1,0.8,3.1,1.3 c0.9,0.5,1.7,1.2,2.4,2c0.6,0.8,0.9,1.9,0.9,3.2c0,1.3-0.3,2.4-0.8,3.4c-0.5,1-1.3,1.8-2.2,2.4c-0.9,0.7-2,1.1-3.2,1.5 c-1.2,0.3-2.5,0.5-3.9,0.5c-0.5,0-1.1,0-1.6-0.1c-0.6,0-1.1-0.1-1.7-0.2c-0.5-0.1-1.1-0.2-1.5-0.3c-0.5-0.1-0.9-0.2-1.2-0.3 l-1-0.3L2.6,60.2z"/>
    </symbol>

    <symbol id="quote" viewBox="0 0 19.2 15.3">
      <path d="M3.5,15.3c-2.3,0-3.5-1.3-3.5-4C0,8.2,2.1,4.4,6.2,0l2.4,2.1C6.7,4.6,5.8,6.5,5.8,7.8C5.8,8,5.8,8.2,6,8.5 s0.3,0.6,0.5,1c0.2,0.4,0.3,0.8,0.4,1.2C7,11.2,7,11.6,7,12c0,0.9-0.3,1.6-1,2.3C5.4,15,4.6,15.3,3.5,15.3z M14,15.3 c-2.3,0-3.5-1.3-3.5-4c0-3.2,2.1-6.9,6.2-11.3l2.4,2.1c-1.9,2.6-2.9,4.5-2.9,5.7c0,0.2,0.1,0.5,0.2,0.7s0.3,0.6,0.5,1 c0.2,0.4,0.3,0.8,0.4,1.2c0.1,0.5,0.2,0.9,0.2,1.3c0,0.9-0.3,1.6-1,2.3C15.9,15,15.1,15.3,14,15.3z"/>
    </symbol>

    <svg id="allwork" viewBox="0 0 1010 976.5044">
      <g> <g> <rect y="146.8247" fill="#DBDBDB" width="1010" height="829.6797"/> </g> <g> <path fill="#EDEDED" d="M1010,36.0405C1010,16.2153,993.7852,0,973.96,0H36.0605C16.2354,0,0,16.2153,0,36.0405v108.2793h1010 V36.0405z"/> </g> 
      <g> <polygon fill="#FFFFFF" points="59.9687,194.0307 59.9687,410.727 59.9687,495.8862 59.9687,929.2993 462.4697,929.2993 547.5508,929.2993 950.0313,929.2993 950.0313,495.8862 950.0313,410.727 950.0313,194.0307    "/> 
      <g> <rect x="118.0244" y="252.0659" fill="#54CACD" width="773.9326" height="185.7851"/> <rect x="118.0244" y="468.7822" fill="#787FA7" width="371.4902" height="402.5005"/> <rect x="520.5059" y="468.7822" fill="#BB8AB8" width="371.4511" height="402.5005"/> </g> </g> <g> <polygon fill="#FAFAFA" points="950.0313,101.9467 188.3691,101.9467 188.3691,43.8916 950.0313,43.8916 950.0313,101.9467     "/> </g> <g> <polygon fill="#CCCCCC" points="142.4653,101.9467 59.9687,101.9467 59.9687,43.8916 142.4653,43.8916 142.4653,101.9467     "/> </g> <g> <polygon fill="#535353" points="714.3184,80.603 230.584,80.603 230.584,65.1567 714.3184,65.1567 714.3184,80.603     "/> </g> </g> 
    </svg>

    <svg id="nextproj" viewBox="0 0 1010 680.5996">
      <g>
      <path fill="#404040" d="M944.835,586.46V65.165c0-26.9765-21.8682-48.8691-48.8615-48.8691H114.043 c-26.9766,0-48.8609,21.8926-48.8609,48.8691V586.46"/> 
      <g> <path fill="#DBDBDB" d="M961.1387,597.3184h-32.5908V65.165c0-17.9726-14.6182-32.5742-32.5743-32.5742H114.043 c-17.9561,0-32.5909,14.6016-32.5909,32.5742v532.1534H48.8779V65.165C48.8779,29.2529,78.1143,0,114.043,0h781.9305 c35.9463,0,65.1651,29.2529,65.1651,65.165v488.7295V597.3184z"/> </g>
      <rect x="114.043" y="65.165" fill="#BB8AB8" width="781.9306" height="485.1133"/>
      <g> <g> <polygon fill="#EDEDED" points="729.8154,460.0586 809.7676,420.0996 729.8154,380.0908       "/> <rect x="269.7144" y="380.0908" fill="#65CDD8" width="460.101" height="79.9678"/> <rect x="200.2666" y="380.0908" fill="#F6BB42" width="69.4478" height="79.9678"/> </g> <path fill="#3D3437" d="M269.7144,467.1572c-9.0201,0-16.3037-7.2842-16.3037-16.2959V384.457 c0-8.9951,7.2837-16.2783,16.3037-16.2783c9.0034,0,16.2871,7.2832,16.2871,16.2783v66.4043 C286.0015,459.873,278.7178,467.1572,269.7144,467.1572L269.7144,467.1572z"/> </g> <g> <rect x="200.2666" y="134.166" fill="#FBD764" width="609.501" height="157.29"/> <g> <polygon fill="#787FA7" points="767.9365,208.832 733.1367,208.832 733.1367,176.2412 767.9365,176.2412 767.9365,208.832       "/> </g> <g> <rect x="267.0674" y="232.2422" fill="#F6BB42" width="32.5742" height="55.4287"/> <polygon fill="#F6BB42" points="322.4702,287.6709 355.0444,287.6709 355.0781,254.4219 322.4873,254.4219      "/> <rect x="377.9072" y="232.2422" fill="#F6BB42" width="32.5908" height="55.4287"/> <rect x="433.3101" y="254.4219" fill="#F6BB42" width="32.6079" height="33.249"/> <rect x="488.7129" y="232.2422" fill="#F6BB42" width="32.5918" height="55.4287"/> <rect x="544.1162" y="254.4219" fill="#F6BB42" width="32.5733" height="33.249"/> <polygon fill="#F6BB42" points="599.5352,287.6709 632.0938,287.6709 632.127,232.2422 599.5693,232.2422      "/> <polygon fill="#F6BB42" points="654.9395,254.4219 654.9551,287.6709 687.5293,287.6709 687.5137,254.4219       "/> <rect x="710.3418" y="232.2422" fill="#F6BB42" width="32.5742" height="55.4287"/> </g> </g>
      <polygon fill="#BFBFBF" points="944.835,680.5996 65.1821,680.5996 0,615.4092 0,582.8779 390.9736,582.8779 423.5479,615.4092 586.4863,615.4092 619.043,582.8779 1010,582.8779 1010,615.4092  "/>
      </g>
    </svg>

    <svg id="speak-icon" viewBox="0 0 70 53">
      <g fill="none" fill-rule="evenodd" transform="rotate(-15 61.085 23.202)">
        <path fill="#404040" d="M3.52203992,31.3728941 L3.52203992,31.3923652 L2.59601469,31.3923652 C1.16219275,31.3923652 7.99360578e-14,27.3109811 7.99360578e-14,22.2765186 C7.99360578e-14,17.2420561 1.16219275,13.1610377 2.59601469,13.1610377 L3.52203992,13.1610377 L3.52203992,13.1805071 C3.57859585,13.1675946 3.63564613,13.1610377 3.69313341,13.1610377 C5.12695535,13.1610377 6.2891481,17.2420561 6.2891481,22.2765186 C6.2891481,27.3109811 5.12695535,31.3923652 3.69313341,31.3923652 C3.63564613,31.3923652 3.57859585,31.3858076 3.52203992,31.3728941 Z"/>
        <path fill="#404040" d="M4.70934664,9.81105015 C5.26967864,10.1779439 5.88682399,10.4687498 6.54798184,10.6662899 L13.9035396,12.8630864 C14.5754837,13.0637922 15.2580297,13.1603065 15.9325329,13.1603065 C18.5234294,13.1599409 20.9922207,11.7389145 22.2469063,9.35530429 L24.2002236,5.64425725 L22.3094212,4.64913657 L22.2935731,4.67924858 L20.8470837,3.9179678 L18.8937664,7.62901485 C17.7871424,9.73222179 15.3304154,10.7657288 13.0524591,10.0850107 L5.6969014,7.88784859 C5.68707452,7.88491458 5.67726153,7.88195113 5.66746252,7.87895837 C4.400798,6.9561361 3.59881264,5.45880922 3.59881264,3.83973275 L3.59881264,0.731168761 L2.13647512,0.731168761 L2.13647512,0 L0,0 L0,3.10856399 C0,6.10095013 1.91740846,8.80203767 4.70934664,9.81105015 Z" transform="translate(15.72 32.171)"/>
        <path fill="#787FA7" d="M4.46524762,14.5279577 C3.21092761,14.5279577 2.19350628,18.0993515 2.19350628,22.5042777 C2.19350628,26.9095695 3.21092761,30.4805977 4.46524762,30.4805977 L60.8690682,45.008921 L60.8690682,-7.88702437e-13 L4.46524762,14.5279577"/>
        <path fill="#5B6185" d="M67.2909234,22.5042777 C67.2909234,34.9330499 64.4214516,45.008921 60.881498,45.008921 C57.3415445,45.008921 54.4720727,34.9330499 54.4720727,22.5042777 C54.4720727,10.0755055 57.3415445,1.31450406e-13 60.881498,1.31450406e-13 C64.4214516,1.31450406e-13 67.2909234,10.0755055 67.2909234,22.5042777"/>
        <path fill="#43BECA" d="M54.4720727,22.299916 C54.4720727,31.0933171 55.9091849,38.7036872 58.0032522,42.4063258 C60.3821098,39.541241 62.0930447,31.6245112 62.0930447,22.299916 C62.0930447,12.9753208 60.3821098,5.05859107 58.0032522,2.19350628 C55.9091849,5.89614489 54.4720727,13.5065149 54.4720727,22.299916"/>
      </g>
    </svg>

    <svg id="teach-icon" viewBox="0 0 49 50">
      <g fill="none">
        <g transform="translate(0 1.335)">
          <path fill="#FBD764" d="M48.5562221,48.0441691 C48.4132703,48.3890999 48.0761492,48.6152324 47.7035721,48.6152324 L0.92365104,48.6152324 C0.414998606,48.6152324 0,48.200361 0,47.6893818 L0,0.927274975 C0,0.552804154 0.222768573,0.214802176 0.570758511,0.0729030663 C0.916739921,-0.0714787339 1.31400807,0.00934718101 1.57916352,0.273432245 L48.3561163,47.0355391 C48.6222661,47.2991444 48.7001436,47.6973046 48.5562221,48.0441691 Z M24.3352874,38.0147478 L10.6027699,24.2854253 L10.6027699,38.0147478 L24.3352874,38.0147478 Z"/>
          <g fill="#F6BB42" transform="translate(5.739 6.528)">
            <polygon points="1.335 3.042 .026 1.733 1.738 .024 3.045 1.333"/>
            <polygon points="3.045 7.031 1.736 5.723 4.588 2.873 5.897 4.181"/>
            <polygon points="7.038 8.741 5.731 7.432 7.439 5.723 8.749 7.031"/>
            <polygon points="8.749 12.734 7.439 11.427 10.291 8.573 11.6 9.881"/>
            <polygon points="12.742 14.442 11.433 13.135 13.141 11.425 14.452 12.732"/>
            <polygon points="14.45 18.434 13.141 17.126 15.995 14.276 17.302 15.584"/>
            <polygon points="18.444 20.145 17.134 18.836 18.845 17.126 20.154 18.434"/>
            <polygon points="20.154 24.136 18.845 22.829 21.696 19.976 23.006 21.284"/>
            <polygon points="24.146 25.846 22.838 24.537 24.55 22.828 25.857 24.137"/>
            <polygon points="25.857 29.837 24.548 28.528 27.4 25.677 28.708 26.985"/>
            <polygon points="29.849 31.545 28.542 30.235 30.252 28.528 31.559 29.837"/>
            <polygon points="31.559 35.536 30.252 34.227 33.103 31.379 34.413 32.688"/>
            <polygon points="35.556 37.247 34.244 35.939 35.955 34.227 37.264 35.535"/>
          </g>
        </g>
        <g transform="translate(12.912)">
          <polygon fill="#787FA7" points="3.517 8.308 8.328 3.5 10.732 5.903 5.924 10.713"/>
          <path fill="#404040" d="M0.503146295,5.29483185 C-0.154354924,4.63654797 -0.154354924,3.56537092 0.503146295,2.90807616 L2.92512995,0.485816024 C3.23565044,0.17541543 3.67035835,0 4.11789413,0 C4.57035724,0 5.00311104,0.17739367 5.31360679,0.485816024 L8.32806185,3.49983185 L3.51658224,8.30833828 L0.503146295,5.29483185 Z"/>
          <polygon fill="#43BECA" points="5.924 10.713 10.732 5.903 33.588 28.75 28.777 33.561"/>
          <polygon fill="#DBDBDB" points="28.777 33.561 33.588 28.75 35.391 35.364"/>
        </g>
      </g>
    </svg>
    
    <svg id="write-icon" viewBox="0 0 46 50">
      <g fill="none">
        <rect width="4.714" height="31.377" x="2.142" y="2.451" fill="#43BECA"/>
        <rect width="4.714" height="3.017" x="2.142" fill="#43BECA"/>
        <polygon fill="#F6BB42" points="6.856 37.582 6.856 39.38 6.856 41.425 4.852 45.229 4.142 45.229 2.142 41.425 2.142 39.38 2.142 37.582"/>
        <rect width=".517" height="3.583" x="4.24" y="37.983" fill="#F8E9AF"/>
        <path fill="#545355" d="M1.16963295,4.13272338 L1.16963295,13.1887964 C1.16963295,13.4646617 0.90628939,13.6882371 0.583002636,13.6882371 C0.261538834,13.6882371 0,13.4646617 0,13.1887964 L0,4.13272338 C0,3.29698757 0.397745203,2.84349347 0.732831009,2.60865204 C1.32582342,2.19978795 2.07955001,2.18942677 2.47638374,2.22188125 L6.85611556,2.22188125 L6.85611556,3.22801556 L2.33381071,3.22801556 C2.33381071,3.22801556 1.71449032,3.20185923 1.46476877,3.39569481 C1.27497675,3.54175131 1.16963295,3.78109918 1.16963295,4.13272338 Z"/>
        <rect width="4.714" height="1.797" x="2.142" y="37.582" fill="#32383F" opacity=".2"/>
        <rect width="4.714" height="5.48" x="2.142" y="32.958" fill="#545355"/>
        <g transform="translate(10.6 .177)">
          <g>
            <polygon fill="#F6BB42" points="5.62 44.657 5.62 44.657 5.62 49.823 5.62 49.823 8.359 49.823 8.359 49.823 8.359 44.657 8.359 44.657"/>
            <path fill="#404040" d="M32.1541141,-4.26325641e-14 L1.28753705,-4.26325641e-14 L-2.09610107e-13,-4.26325641e-14 L-2.09610107e-13,44.7890597 L1.28753705,44.7890597 L32.1541141,44.7890597 C33.6967659,44.7890597 34.9489363,43.536827 34.9489363,41.9914062 L34.9489363,2.79955271 C34.9489363,1.25461537 33.6967659,-4.26325641e-14 32.1541141,-4.26325641e-14 Z"/>
            <rect width="34.949" height="10.496" y="17.146" fill="#43BECA"/>
            <polygon fill="#303030" points="21.698 0 21.698 .006 21.698 44.785 21.698 44.789 24.437 44.789 24.437 44.785 24.437 .006 24.437 0"/>
          </g>
        </g>
      </g>
    </svg>
  </defs>
</svg>